<?xml version="1.0" encoding="UTF-8" standalone="no"?>
<!DOCTYPE svg PUBLIC "-//W3C//DTD SVG 1.1//EN"
 "http://www.w3.org/Graphics/SVG/1.1/DTD/svg11.dtd">
<!-- Generated by graphviz version 10.0.1 (20240210.2158)
 -->
<!-- Title: G Pages: 1 -->
<svg width="1348pt" height="614pt"
 viewBox="0.00 0.00 1348.00 614.00" xmlns="http://www.w3.org/2000/svg" xmlns:xlink="http://www.w3.org/1999/xlink">
<g id="graph0" class="graph" transform="scale(1 1) rotate(0) translate(4 610)">
<title>G</title>
<polygon fill="white" stroke="none" points="-4,4 -4,-610 1344,-610 1344,4 -4,4"/>
<!-- data.aws_caller_identity.current -->
<g id="node1" class="node">
<title>data.aws_caller_identity.current</title>
<polygon fill="none" stroke="black" points="1277.75,-132 1061.5,-132 1061.5,-96 1277.75,-96 1277.75,-132"/>
<text text-anchor="middle" x="1169.62" y="-109.33" font-family="sans-serif" font-size="14.00">data.aws_caller_identity.current</text>
</g>
<!-- data.aws_iam_policy_document.assume_role_policy -->
<g id="node2" class="node">
<title>data.aws_iam_policy_document.assume_role_policy</title>
<polygon fill="none" stroke="black" points="1340,-186 999.25,-186 999.25,-150 1340,-150 1340,-186"/>
<text text-anchor="middle" x="1169.62" y="-163.32" font-family="sans-serif" font-size="14.00">data.aws_iam_policy_document.assume_role_policy</text>
</g>
<!-- data.aws_iam_role.ecsTaskExecutionRole -->
<g id="node3" class="node">
<title>data.aws_iam_role.ecsTaskExecutionRole</title>
<polygon fill="none" stroke="black" points="414.5,-498 140.5,-498 140.5,-462 414.5,-462 414.5,-498"/>
<text text-anchor="middle" x="277.5" y="-475.32" font-family="sans-serif" font-size="14.00">data.aws_iam_role.ecsTaskExecutionRole</text>
</g>
<!-- aws_ecr_repository.my_first_ecr_repo -->
<g id="node4" class="node">
<title>aws_ecr_repository.my_first_ecr_repo</title>
<polygon fill="none" stroke="black" points="404,-552 151,-552 151,-516 404,-516 404,-552"/>
<text text-anchor="middle" x="277.5" y="-529.33" font-family="sans-serif" font-size="14.00">aws_ecr_repository.my_first_ecr_repo</text>
</g>
<!-- aws_ecs_cluster.my_cluster -->
<g id="node5" class="node">
<title>aws_ecs_cluster.my_cluster</title>
<polygon fill="none" stroke="black" points="651,-606 462.5,-606 462.5,-570 651,-570 651,-606"/>
<text text-anchor="middle" x="556.75" y="-583.33" font-family="sans-serif" font-size="14.00">aws_ecs_cluster.my_cluster</text>
</g>
<!-- aws_ecs_service.my_service -->
<g id="node6" class="node">
<title>aws_ecs_service.my_service</title>
<polygon fill="none" stroke="black" points="926.88,-398 735.38,-398 735.38,-362 926.88,-362 926.88,-398"/>
<text text-anchor="middle" x="831.12" y="-375.32" font-family="sans-serif" font-size="14.00">aws_ecs_service.my_service</text>
</g>
<!-- aws_ecs_service.my_service&#45;&gt;aws_ecs_cluster.my_cluster -->
<g id="edge1" class="edge">
<title>aws_ecs_service.my_service&#45;&gt;aws_ecs_cluster.my_cluster</title>
<path fill="none" stroke="black" d="M818.56,-398.37C794.4,-435.18 734.8,-518.14 663,-561 660.8,-562.32 658.53,-563.57 656.21,-564.76"/>
<polygon fill="black" stroke="black" points="654.74,-561.58 647.14,-568.97 657.68,-567.93 654.74,-561.58"/>
</g>
<!-- aws_ecs_task_definition.service -->
<g id="node7" class="node">
<title>aws_ecs_task_definition.service</title>
<polygon fill="none" stroke="black" points="663,-498 450.5,-498 450.5,-462 663,-462 663,-498"/>
<text text-anchor="middle" x="556.75" y="-475.32" font-family="sans-serif" font-size="14.00">aws_ecs_task_definition.service</text>
</g>
<!-- aws_ecs_service.my_service&#45;&gt;aws_ecs_task_definition.service -->
<g id="edge2" class="edge">
<title>aws_ecs_service.my_service&#45;&gt;aws_ecs_task_definition.service</title>
<path fill="none" stroke="black" d="M792.65,-398.44C759.22,-414.39 708.66,-437.29 663,-453 657.62,-454.85 652.05,-456.64 646.4,-458.36"/>
<polygon fill="black" stroke="black" points="645.54,-454.96 636.93,-461.14 647.51,-461.68 645.54,-454.96"/>
</g>
<!-- aws_lb_target_group.example -->
<g id="node12" class="node">
<title>aws_lb_target_group.example</title>
<polygon fill="none" stroke="black" points="659.62,-336 453.88,-336 453.88,-300 659.62,-300 659.62,-336"/>
<text text-anchor="middle" x="556.75" y="-313.32" font-family="sans-serif" font-size="14.00">aws_lb_target_group.example</text>
</g>
<!-- aws_ecs_service.my_service&#45;&gt;aws_lb_target_group.example -->
<g id="edge3" class="edge">
<title>aws_ecs_service.my_service&#45;&gt;aws_lb_target_group.example</title>
<path fill="none" stroke="black" d="M749.14,-361.57C718,-354.48 682.22,-346.33 650.09,-339.02"/>
<polygon fill="black" stroke="black" points="650.9,-335.61 640.37,-336.81 649.34,-342.44 650.9,-335.61"/>
</g>
<!-- aws_subnet.private_az1 -->
<g id="node22" class="node">
<title>aws_subnet.private_az1</title>
<polygon fill="none" stroke="black" points="639.75,-390 473.75,-390 473.75,-354 639.75,-354 639.75,-390"/>
<text text-anchor="middle" x="556.75" y="-367.32" font-family="sans-serif" font-size="14.00">aws_subnet.private_az1</text>
</g>
<!-- aws_ecs_service.my_service&#45;&gt;aws_subnet.private_az1 -->
<g id="edge4" class="edge">
<title>aws_ecs_service.my_service&#45;&gt;aws_subnet.private_az1</title>
<path fill="none" stroke="black" d="M735.24,-377.21C708.11,-376.42 678.55,-375.55 651.49,-374.75"/>
<polygon fill="black" stroke="black" points="651.66,-371.26 641.57,-374.46 651.46,-378.25 651.66,-371.26"/>
</g>
<!-- aws_subnet.private_az2 -->
<g id="node23" class="node">
<title>aws_subnet.private_az2</title>
<polygon fill="none" stroke="black" points="639.75,-444 473.75,-444 473.75,-408 639.75,-408 639.75,-444"/>
<text text-anchor="middle" x="556.75" y="-421.32" font-family="sans-serif" font-size="14.00">aws_subnet.private_az2</text>
</g>
<!-- aws_ecs_service.my_service&#45;&gt;aws_subnet.private_az2 -->
<g id="edge5" class="edge">
<title>aws_ecs_service.my_service&#45;&gt;aws_subnet.private_az2</title>
<path fill="none" stroke="black" d="M735.24,-396.02C707.99,-400.63 678.29,-405.64 651.12,-410.23"/>
<polygon fill="black" stroke="black" points="650.82,-406.73 641.55,-411.85 651.99,-413.63 650.82,-406.73"/>
</g>
<!-- aws_ecs_task_definition.service&#45;&gt;data.aws_iam_role.ecsTaskExecutionRole -->
<g id="edge6" class="edge">
<title>aws_ecs_task_definition.service&#45;&gt;data.aws_iam_role.ecsTaskExecutionRole</title>
<path fill="none" stroke="black" d="M450.14,-480C442.24,-480 434.18,-480 426.08,-480"/>
<polygon fill="black" stroke="black" points="426.13,-476.5 416.13,-480 426.13,-483.5 426.13,-476.5"/>
</g>
<!-- aws_ecs_task_definition.service&#45;&gt;aws_ecr_repository.my_first_ecr_repo -->
<g id="edge7" class="edge">
<title>aws_ecs_task_definition.service&#45;&gt;aws_ecr_repository.my_first_ecr_repo</title>
<path fill="none" stroke="black" d="M461.11,-498.43C436.38,-503.25 409.56,-508.47 384.29,-513.4"/>
<polygon fill="black" stroke="black" points="383.81,-509.92 374.67,-515.27 385.15,-516.79 383.81,-509.92"/>
</g>
<!-- aws_eip.nat -->
<g id="node8" class="node">
<title>aws_eip.nat</title>
<polygon fill="none" stroke="black" points="323,-144 232,-144 232,-108 323,-108 323,-144"/>
<text text-anchor="middle" x="277.5" y="-121.33" font-family="sans-serif" font-size="14.00">aws_eip.nat</text>
</g>
<!-- aws_internet_gateway.gw -->
<g id="node9" class="node">
<title>aws_internet_gateway.gw</title>
<polygon fill="none" stroke="black" points="367.25,-36 187.75,-36 187.75,0 367.25,0 367.25,-36"/>
<text text-anchor="middle" x="277.5" y="-13.32" font-family="sans-serif" font-size="14.00">aws_internet_gateway.gw</text>
</g>
<!-- aws_vpc.main -->
<g id="node26" class="node">
<title>aws_vpc.main</title>
<polygon fill="none" stroke="black" points="104.5,-279 0,-279 0,-243 104.5,-243 104.5,-279"/>
<text text-anchor="middle" x="52.25" y="-256.32" font-family="sans-serif" font-size="14.00">aws_vpc.main</text>
</g>
<!-- aws_internet_gateway.gw&#45;&gt;aws_vpc.main -->
<g id="edge8" class="edge">
<title>aws_internet_gateway.gw&#45;&gt;aws_vpc.main</title>
<path fill="none" stroke="black" d="M187.41,-22.67C170.45,-26.98 153.85,-33.95 140.5,-45 82.89,-92.68 62.99,-184.17 56.37,-231.31"/>
<polygon fill="black" stroke="black" points="52.92,-230.69 55.12,-241.05 59.87,-231.58 52.92,-230.69"/>
</g>
<!-- aws_lb.test -->
<g id="node10" class="node">
<title>aws_lb.test</title>
<polygon fill="none" stroke="black" points="599.62,-282 513.88,-282 513.88,-246 599.62,-246 599.62,-282"/>
<text text-anchor="middle" x="556.75" y="-259.32" font-family="sans-serif" font-size="14.00">aws_lb.test</text>
</g>
<!-- aws_security_group.lb_sg -->
<g id="node21" class="node">
<title>aws_security_group.lb_sg</title>
<polygon fill="none" stroke="black" points="366.5,-306 188.5,-306 188.5,-270 366.5,-270 366.5,-306"/>
<text text-anchor="middle" x="277.5" y="-283.32" font-family="sans-serif" font-size="14.00">aws_security_group.lb_sg</text>
</g>
<!-- aws_lb.test&#45;&gt;aws_security_group.lb_sg -->
<g id="edge9" class="edge">
<title>aws_lb.test&#45;&gt;aws_security_group.lb_sg</title>
<path fill="none" stroke="black" d="M513.64,-267.65C477.82,-270.75 424.92,-275.33 378.36,-279.36"/>
<polygon fill="black" stroke="black" points="378.15,-275.86 368.49,-280.21 378.76,-282.83 378.15,-275.86"/>
</g>
<!-- aws_subnet.public_az1 -->
<g id="node24" class="node">
<title>aws_subnet.public_az1</title>
<polygon fill="none" stroke="black" points="357.88,-252 197.12,-252 197.12,-216 357.88,-216 357.88,-252"/>
<text text-anchor="middle" x="277.5" y="-229.32" font-family="sans-serif" font-size="14.00">aws_subnet.public_az1</text>
</g>
<!-- aws_lb.test&#45;&gt;aws_subnet.public_az1 -->
<g id="edge10" class="edge">
<title>aws_lb.test&#45;&gt;aws_subnet.public_az1</title>
<path fill="none" stroke="black" d="M513.64,-259.44C475.49,-255.31 417.96,-249.09 369.36,-243.83"/>
<polygon fill="black" stroke="black" points="370.01,-240.38 359.69,-242.78 369.25,-247.34 370.01,-240.38"/>
</g>
<!-- aws_subnet.public_az2 -->
<g id="node25" class="node">
<title>aws_subnet.public_az2</title>
<polygon fill="none" stroke="black" points="357.88,-90 197.12,-90 197.12,-54 357.88,-54 357.88,-90"/>
<text text-anchor="middle" x="277.5" y="-67.33" font-family="sans-serif" font-size="14.00">aws_subnet.public_az2</text>
</g>
<!-- aws_lb.test&#45;&gt;aws_subnet.public_az2 -->
<g id="edge11" class="edge">
<title>aws_lb.test&#45;&gt;aws_subnet.public_az2</title>
<path fill="none" stroke="black" d="M513.52,-246.21C492.09,-235.32 467.14,-219.51 450.5,-199 420.74,-162.32 450.3,-129.81 414.5,-99 401.7,-87.99 385.71,-80.98 369.23,-76.62"/>
<polygon fill="black" stroke="black" points="370.37,-73.29 359.84,-74.45 368.8,-80.11 370.37,-73.29"/>
</g>
<!-- aws_lb_listener.front_end -->
<g id="node11" class="node">
<title>aws_lb_listener.front_end</title>
<polygon fill="none" stroke="black" points="919.75,-300 742.5,-300 742.5,-264 919.75,-264 919.75,-300"/>
<text text-anchor="middle" x="831.12" y="-277.32" font-family="sans-serif" font-size="14.00">aws_lb_listener.front_end</text>
</g>
<!-- aws_lb_listener.front_end&#45;&gt;aws_lb.test -->
<g id="edge12" class="edge">
<title>aws_lb_listener.front_end&#45;&gt;aws_lb.test</title>
<path fill="none" stroke="black" d="M742.07,-276.18C698.83,-273.32 648.15,-269.97 610.89,-267.51"/>
<polygon fill="black" stroke="black" points="611.5,-264.04 601.3,-266.88 611.04,-271.03 611.5,-264.04"/>
</g>
<!-- aws_lb_listener.front_end&#45;&gt;aws_lb_target_group.example -->
<g id="edge13" class="edge">
<title>aws_lb_listener.front_end&#45;&gt;aws_lb_target_group.example</title>
<path fill="none" stroke="black" d="M742.07,-293.64C719.39,-296.64 694.67,-299.9 670.92,-303.04"/>
<polygon fill="black" stroke="black" points="670.67,-299.54 661.22,-304.32 671.59,-306.48 670.67,-299.54"/>
</g>
<!-- aws_lb_target_group.example&#45;&gt;aws_vpc.main -->
<g id="edge14" class="edge">
<title>aws_lb_target_group.example&#45;&gt;aws_vpc.main</title>
<path fill="none" stroke="black" d="M453.71,-332.38C368.28,-340.87 244.06,-344.86 140.5,-315 120.37,-309.2 100.33,-297.33 84.53,-286.2"/>
<polygon fill="black" stroke="black" points="86.64,-283.4 76.51,-280.31 82.5,-289.05 86.64,-283.4"/>
</g>
<!-- aws_nat_gateway.nat -->
<g id="node13" class="node">
<title>aws_nat_gateway.nat</title>
<polygon fill="none" stroke="black" points="633,-190 480.5,-190 480.5,-154 633,-154 633,-190"/>
<text text-anchor="middle" x="556.75" y="-167.32" font-family="sans-serif" font-size="14.00">aws_nat_gateway.nat</text>
</g>
<!-- aws_nat_gateway.nat&#45;&gt;aws_eip.nat -->
<g id="edge15" class="edge">
<title>aws_nat_gateway.nat&#45;&gt;aws_eip.nat</title>
<path fill="none" stroke="black" d="M480.36,-159.49C434.24,-151.84 376.23,-142.21 334.25,-135.25"/>
<polygon fill="black" stroke="black" points="335.06,-131.84 324.62,-133.65 333.91,-138.74 335.06,-131.84"/>
</g>
<!-- aws_nat_gateway.nat&#45;&gt;aws_subnet.public_az1 -->
<g id="edge16" class="edge">
<title>aws_nat_gateway.nat&#45;&gt;aws_subnet.public_az1</title>
<path fill="none" stroke="black" d="M484.05,-190.46C461.81,-196 437.19,-201.94 414.5,-207 399.85,-210.27 384.26,-213.55 369.07,-216.64"/>
<polygon fill="black" stroke="black" points="368.69,-213.14 359.58,-218.55 370.07,-220 368.69,-213.14"/>
</g>
<!-- aws_route_table.private -->
<g id="node14" class="node">
<title>aws_route_table.private</title>
<polygon fill="none" stroke="black" points="914.12,-190 748.12,-190 748.12,-154 914.12,-154 914.12,-190"/>
<text text-anchor="middle" x="831.12" y="-167.32" font-family="sans-serif" font-size="14.00">aws_route_table.private</text>
</g>
<!-- aws_route_table.private&#45;&gt;aws_nat_gateway.nat -->
<g id="edge17" class="edge">
<title>aws_route_table.private&#45;&gt;aws_nat_gateway.nat</title>
<path fill="none" stroke="black" d="M747.66,-172C715.17,-172 677.82,-172 644.88,-172"/>
<polygon fill="black" stroke="black" points="644.94,-168.5 634.94,-172 644.94,-175.5 644.94,-168.5"/>
</g>
<!-- aws_route_table.public -->
<g id="node15" class="node">
<title>aws_route_table.public</title>
<polygon fill="none" stroke="black" points="637.12,-136 476.38,-136 476.38,-100 637.12,-100 637.12,-136"/>
<text text-anchor="middle" x="556.75" y="-113.33" font-family="sans-serif" font-size="14.00">aws_route_table.public</text>
</g>
<!-- aws_route_table.public&#45;&gt;aws_internet_gateway.gw -->
<g id="edge18" class="edge">
<title>aws_route_table.public&#45;&gt;aws_internet_gateway.gw</title>
<path fill="none" stroke="black" d="M526.27,-99.63C498.43,-83.06 455.02,-59.17 414.5,-45 403.11,-41.01 390.96,-37.55 378.79,-34.57"/>
<polygon fill="black" stroke="black" points="379.63,-31.17 369.1,-32.3 378.04,-37.99 379.63,-31.17"/>
</g>
<!-- aws_route_table_association.private_az1 -->
<g id="node16" class="node">
<title>aws_route_table_association.private_az1</title>
<polygon fill="none" stroke="black" points="1304.38,-240 1034.88,-240 1034.88,-204 1304.38,-204 1304.38,-240"/>
<text text-anchor="middle" x="1169.62" y="-217.32" font-family="sans-serif" font-size="14.00">aws_route_table_association.private_az1</text>
</g>
<!-- aws_route_table_association.private_az1&#45;&gt;aws_route_table.private -->
<g id="edge19" class="edge">
<title>aws_route_table_association.private_az1&#45;&gt;aws_route_table.private</title>
<path fill="none" stroke="black" d="M1044.28,-203.52C1005.09,-197.7 962.48,-191.37 925.8,-185.92"/>
<polygon fill="black" stroke="black" points="926.52,-182.49 916.11,-184.48 925.49,-189.41 926.52,-182.49"/>
</g>
<!-- aws_route_table_association.private_az1&#45;&gt;aws_subnet.private_az1 -->
<g id="edge20" class="edge">
<title>aws_route_table_association.private_az1&#45;&gt;aws_subnet.private_az1</title>
<path fill="none" stroke="black" d="M1132.88,-240.35C1092.66,-260.23 1024.89,-291.45 963.25,-309 933.85,-317.37 761.66,-342.83 651.32,-358.7"/>
<polygon fill="black" stroke="black" points="651.07,-355.2 641.67,-360.09 652.07,-362.13 651.07,-355.2"/>
</g>
<!-- aws_route_table_association.private_az2 -->
<g id="node17" class="node">
<title>aws_route_table_association.private_az2</title>
<polygon fill="none" stroke="black" points="1304.38,-394 1034.88,-394 1034.88,-358 1304.38,-358 1304.38,-394"/>
<text text-anchor="middle" x="1169.62" y="-371.32" font-family="sans-serif" font-size="14.00">aws_route_table_association.private_az2</text>
</g>
<!-- aws_route_table_association.private_az2&#45;&gt;aws_route_table.private -->
<g id="edge21" class="edge">
<title>aws_route_table_association.private_az2&#45;&gt;aws_route_table.private</title>
<path fill="none" stroke="black" d="M1138.62,-357.53C1102.98,-334.73 1042.87,-293.48 999.25,-249 980.08,-229.45 986.23,-213.89 963.25,-199 951.78,-191.57 938.67,-186.13 925.27,-182.16"/>
<polygon fill="black" stroke="black" points="926.51,-178.86 915.95,-179.66 924.7,-185.63 926.51,-178.86"/>
</g>
<!-- aws_route_table_association.private_az2&#45;&gt;aws_subnet.private_az2 -->
<g id="edge22" class="edge">
<title>aws_route_table_association.private_az2&#45;&gt;aws_subnet.private_az2</title>
<path fill="none" stroke="black" d="M1060.44,-394.46C1029.16,-399.22 994.92,-403.88 963.25,-407 856.58,-417.52 733.52,-422.25 651.21,-424.35"/>
<polygon fill="black" stroke="black" points="651.29,-420.85 641.38,-424.59 651.46,-427.85 651.29,-420.85"/>
</g>
<!-- aws_route_table_association.public_az1 -->
<g id="node18" class="node">
<title>aws_route_table_association.public_az1</title>
<polygon fill="none" stroke="black" points="963.25,-244 699,-244 699,-208 963.25,-208 963.25,-244"/>
<text text-anchor="middle" x="831.12" y="-221.32" font-family="sans-serif" font-size="14.00">aws_route_table_association.public_az1</text>
</g>
<!-- aws_route_table_association.public_az1&#45;&gt;aws_route_table.public -->
<g id="edge23" class="edge">
<title>aws_route_table_association.public_az1&#45;&gt;aws_route_table.public</title>
<path fill="none" stroke="black" d="M713.96,-207.5C708.74,-205 703.72,-202.18 699,-199 675.08,-182.88 686.53,-161.69 663,-145 658.31,-141.67 653.25,-138.76 647.97,-136.2"/>
<polygon fill="black" stroke="black" points="649.54,-133.07 638.97,-132.31 646.76,-139.49 649.54,-133.07"/>
</g>
<!-- aws_route_table_association.public_az1&#45;&gt;aws_subnet.public_az1 -->
<g id="edge24" class="edge">
<title>aws_route_table_association.public_az1&#45;&gt;aws_subnet.public_az1</title>
<path fill="none" stroke="black" d="M698.7,-227.91C597.19,-229.38 459.34,-231.38 369.66,-232.68"/>
<polygon fill="black" stroke="black" points="369.62,-229.18 359.67,-232.82 369.72,-236.18 369.62,-229.18"/>
</g>
<!-- aws_route_table_association.public_az2 -->
<g id="node19" class="node">
<title>aws_route_table_association.public_az2</title>
<polygon fill="none" stroke="black" points="963.25,-113 699,-113 699,-77 963.25,-77 963.25,-113"/>
<text text-anchor="middle" x="831.12" y="-90.33" font-family="sans-serif" font-size="14.00">aws_route_table_association.public_az2</text>
</g>
<!-- aws_route_table_association.public_az2&#45;&gt;aws_route_table.public -->
<g id="edge25" class="edge">
<title>aws_route_table_association.public_az2&#45;&gt;aws_route_table.public</title>
<path fill="none" stroke="black" d="M698.72,-106.1C681.7,-107.53 664.58,-108.98 648.43,-110.34"/>
<polygon fill="black" stroke="black" points="648.59,-106.82 638.92,-111.15 649.17,-113.79 648.59,-106.82"/>
</g>
<!-- aws_route_table_association.public_az2&#45;&gt;aws_subnet.public_az2 -->
<g id="edge26" class="edge">
<title>aws_route_table_association.public_az2&#45;&gt;aws_subnet.public_az2</title>
<path fill="none" stroke="black" d="M698.7,-89.52C597.09,-85.28 459.06,-79.53 369.39,-75.79"/>
<polygon fill="black" stroke="black" points="369.81,-72.3 359.67,-75.38 369.51,-79.3 369.81,-72.3"/>
</g>
<!-- aws_security_group.ecs_sg -->
<g id="node20" class="node">
<title>aws_security_group.ecs_sg</title>
<polygon fill="none" stroke="black" points="371,-198 184,-198 184,-162 371,-162 371,-198"/>
<text text-anchor="middle" x="277.5" y="-175.32" font-family="sans-serif" font-size="14.00">aws_security_group.ecs_sg</text>
</g>
<!-- aws_security_group.ecs_sg&#45;&gt;aws_vpc.main -->
<g id="edge27" class="edge">
<title>aws_security_group.ecs_sg&#45;&gt;aws_vpc.main</title>
<path fill="none" stroke="black" d="M183.77,-193.77C169.04,-197.27 154.16,-201.62 140.5,-207 121.69,-214.4 102.42,-225.85 86.79,-236.3"/>
<polygon fill="black" stroke="black" points="85.07,-233.24 78.81,-241.78 89.03,-239.01 85.07,-233.24"/>
</g>
<!-- aws_security_group.lb_sg&#45;&gt;aws_vpc.main -->
<g id="edge28" class="edge">
<title>aws_security_group.lb_sg&#45;&gt;aws_vpc.main</title>
<path fill="none" stroke="black" d="M188.27,-277.33C164.19,-274.42 138.59,-271.32 116.23,-268.62"/>
<polygon fill="black" stroke="black" points="116.7,-265.15 106.36,-267.42 115.86,-272.1 116.7,-265.15"/>
</g>
<!-- aws_subnet.private_az1&#45;&gt;aws_vpc.main -->
<g id="edge29" class="edge">
<title>aws_subnet.private_az1&#45;&gt;aws_vpc.main</title>
<path fill="none" stroke="black" d="M473.63,-380.87C387.08,-386.82 248.59,-386.51 140.5,-340 114.21,-328.69 90.56,-306.1 74.54,-287.97"/>
<polygon fill="black" stroke="black" points="77.45,-285.98 68.3,-280.64 72.12,-290.52 77.45,-285.98"/>
</g>
<!-- aws_subnet.private_az2&#45;&gt;aws_vpc.main -->
<g id="edge30" class="edge">
<title>aws_subnet.private_az2&#45;&gt;aws_vpc.main</title>
<path fill="none" stroke="black" d="M473.46,-433.9C385.22,-438.46 243.88,-434.17 140.5,-375 106.13,-355.33 80.81,-316.15 66.55,-289.27"/>
<polygon fill="black" stroke="black" points="69.81,-287.95 62.15,-280.63 63.57,-291.13 69.81,-287.95"/>
</g>
<!-- aws_subnet.public_az1&#45;&gt;aws_vpc.main -->
<g id="edge31" class="edge">
<title>aws_subnet.public_az1&#45;&gt;aws_vpc.main</title>
<path fill="none" stroke="black" d="M196.85,-243.63C170.35,-246.84 141.23,-250.36 116.18,-253.39"/>
<polygon fill="black" stroke="black" points="115.99,-249.89 106.48,-254.56 116.83,-256.84 115.99,-249.89"/>
</g>
<!-- aws_subnet.public_az2&#45;&gt;aws_vpc.main -->
<g id="edge32" class="edge">
<title>aws_subnet.public_az2&#45;&gt;aws_vpc.main</title>
<path fill="none" stroke="black" d="M196.84,-75.91C177,-79.95 156.76,-86.98 140.5,-99 95.99,-131.89 71.76,-194.46 60.75,-231.47"/>
<polygon fill="black" stroke="black" points="57.39,-230.49 58.05,-241.07 64.13,-232.39 57.39,-230.49"/>
</g>
<!-- null_resource.push_image -->
<g id="node27" class="node">
<title>null_resource.push_image</title>
<polygon fill="none" stroke="black" points="647.25,-552 466.25,-552 466.25,-516 647.25,-516 647.25,-552"/>
<text text-anchor="middle" x="556.75" y="-529.33" font-family="sans-serif" font-size="14.00">null_resource.push_image</text>
</g>
<!-- null_resource.push_image&#45;&gt;aws_ecr_repository.my_first_ecr_repo -->
<g id="edge33" class="edge">
<title>null_resource.push_image&#45;&gt;aws_ecr_repository.my_first_ecr_repo</title>
<path fill="none" stroke="black" d="M466.12,-534C449.96,-534 432.78,-534 415.64,-534"/>
<polygon fill="black" stroke="black" points="415.9,-530.5 405.9,-534 415.9,-537.5 415.9,-530.5"/>
</g>
</g>
</svg>
